<svg width="16" height="16" viewBox="0 0 16 16" fill="none" xmlns="http://www.w3.org/2000/svg">
<path d="M9.98301 12.8689L9.5948 12.3239V11.9175C9.5948 11.8718 9.55825 11.8348 9.51313 11.8348H9.51103C9.46592 11.8348 9.42937 11.8718 9.42937 11.9175V12.3046L9.02769 12.8689C9.00059 12.9068 9.01003 12.9598 9.0485 12.986C9.08505 13.0108 9.13454 13.0018 9.16024 12.9657L9.42937 12.5877V12.9154C9.42937 12.9611 9.46592 12.9981 9.51103 12.9981H9.51296C9.55807 12.9981 9.59462 12.9611 9.59462 12.9154V12.6065L9.85028 12.9655C9.87599 13.0016 9.92548 13.0106 9.96203 12.9859C10.0007 12.96 10.0101 12.9069 9.98301 12.8689Z" fill="#4C4948"/>
<path d="M13.4287 10.2505C12.4024 9.91606 11.283 10.1542 10.4795 10.871C10.7222 11.0409 10.9873 11.1731 11.2715 11.2656H11.2717C11.3575 11.2936 11.4441 11.316 11.531 11.336C11.8604 11.3592 12.1964 11.269 12.4746 11.0612C12.4323 11.1198 12.3868 11.1766 12.3347 11.2295C12.2662 11.2992 12.1918 11.3592 12.114 11.4118C12.8785 11.4355 13.6338 11.1686 14.2207 10.6452C13.978 10.4754 13.7129 10.343 13.4287 10.2505Z" fill="url(#paint0_linear)"/>
<path d="M14.8642 10.9729C14.8892 10.9713 14.896 10.9381 14.8734 10.9271L13.7384 10.3715C13.5623 10.2857 13.3508 10.3605 13.266 10.5387L12.7176 11.6902C12.6736 11.7826 12.5457 11.8261 12.4371 11.8467C12.3894 11.8557 12.3814 11.9213 12.4249 11.9427L13.5477 12.4923C13.7238 12.5781 13.9353 12.5033 14.0201 12.3251L14.5685 11.1736C14.626 11.0531 14.7411 10.9807 14.8642 10.9729Z" fill="url(#paint1_linear)"/>
<path d="M14.1047 11.3472C14.1929 11.1283 14.0888 10.8787 13.8727 10.7897C13.6564 10.7005 13.4096 10.8058 13.3216 11.0245C13.2924 11.0972 13.2848 11.1733 13.2949 11.2458L13.2944 11.2456L13.3615 11.9348L13.3619 11.935C13.364 11.9538 13.3757 11.9708 13.3942 11.9784C13.4128 11.986 13.4329 11.9821 13.4474 11.9702L13.4476 11.9704L13.9715 11.5249L13.9711 11.5247C14.0283 11.4797 14.0753 11.4199 14.1047 11.3472ZM13.6333 11.3838C13.5252 11.3392 13.4731 11.2145 13.5172 11.105C13.5612 10.9956 13.6845 10.9429 13.7928 10.9875C13.9008 11.0321 13.9529 11.1568 13.9089 11.2663C13.8648 11.3759 13.7415 11.4284 13.6333 11.3838Z" fill="white"/>
<path d="M8.26823 10.7933C8.46479 10.176 8.85178 9.62163 9.37639 9.27235C8.66851 8.79195 8.281 7.91006 8.46566 7.01403C8.58475 6.43613 8.91998 5.96016 9.36782 5.65334L9.77405 4.47862C9.79171 4.42748 9.85816 4.4158 9.89191 4.45791L10.4776 5.18869C10.6113 5.19417 10.7465 5.20957 10.8819 5.23805L13.465 5.78321C13.5936 5.81029 13.717 5.84815 13.8361 5.8938L14.6559 5.46383C14.704 5.43871 14.7607 5.47657 14.7566 5.53107L14.665 6.77091C14.9543 7.23326 15.0733 7.80514 14.9543 8.38303C14.7224 9.50821 13.6726 10.248 12.5646 10.1008C12.5564 10.1581 12.5421 10.2155 12.5202 10.2719C12.0715 11.431 10.9563 12.2519 9.65164 12.2519C8.84775 12.2519 8.11662 11.9394 7.56787 11.4562C7.87022 11.3364 8.19601 11.0198 8.26823 10.7933Z" fill="url(#paint2_linear)"/>
<path d="M14.9543 8.38328C15.0733 7.80538 14.9543 7.2335 14.665 6.77115L14.7567 5.53131C14.7607 5.47664 14.704 5.43877 14.6559 5.46408L13.8361 5.89405C13.7172 5.8484 13.5936 5.81053 13.4651 5.78346L10.8819 5.2383C10.7463 5.20963 10.6113 5.19424 10.4776 5.18893L9.89174 4.45816C9.85799 4.41604 9.79154 4.42772 9.77388 4.47886L9.36765 5.65358C8.91998 5.9604 8.58476 6.43638 8.4655 7.01427C8.28083 7.91049 8.66834 8.79237 9.37622 9.27259C10.5848 10.2187 12.5645 10.1014 12.5645 10.1014C13.28 10.2067 13.9148 9.87614 14.1075 9.70486C14.5276 9.39716 14.8401 8.93711 14.9543 8.38328Z" fill="url(#paint3_linear)"/>
<path d="M14.7162 5.4628C14.6981 5.45431 14.6764 5.45325 14.6559 5.46386L13.8361 5.89383C13.7172 5.84818 13.5936 5.81032 13.465 5.78324L10.8819 5.23808C10.7463 5.20942 10.6113 5.19402 10.4776 5.18872L9.89174 4.45794C9.87093 4.43193 9.83823 4.42857 9.81165 4.44025L10.0736 5.8726L11.5962 7.83861L14.0577 6.94717L14.7162 5.4628Z" fill="url(#paint4_linear)"/>
<path d="M14.598 8.1583C14.7477 7.46628 14.3934 6.75409 13.7553 6.46496C13.6624 6.42285 13.5645 6.39012 13.4641 6.368C12.7249 6.20433 11.9924 6.63129 11.7465 7.33552C11.8296 6.68526 11.4807 6.04136 10.882 5.77011C10.7891 5.728 10.6912 5.69544 10.5908 5.67314C9.79042 5.49585 8.99668 6.0104 8.82146 6.82026C8.67177 7.51229 9.02606 8.22448 9.66416 8.5136C9.75702 8.55572 9.85495 8.58827 9.95532 8.61057C10.6945 8.77424 11.427 8.34728 11.6729 7.64305C11.5898 8.29331 11.9387 8.93721 12.5375 9.20846C12.6303 9.25057 12.7283 9.2833 12.8286 9.30542C13.629 9.48272 14.4228 8.96835 14.598 8.1583Z" fill="url(#paint5_linear)"/>
<path d="M10.5955 9.73839C10.5953 9.7375 10.5952 9.73662 10.595 9.73573C10.5703 9.59436 10.4238 9.50677 10.29 9.55472C9.24552 9.92966 8.52295 10.8963 8.43481 11.9999C8.80834 12.159 9.21894 12.2519 9.65174 12.2519C9.70193 12.2519 9.75142 12.2485 9.80108 12.246C10.4327 11.614 10.7602 10.6912 10.5955 9.73839Z" fill="url(#paint6_linear)"/>
<path d="M10.412 9.52263C10.548 9.5198 10.6556 9.64437 10.6356 9.78061C10.6355 9.7815 10.6355 9.78238 10.6353 9.78309C10.4272 11.202 9.17284 12.2012 7.78174 12.1002C7.78628 12.0159 7.79433 11.9312 7.80675 11.8461C8.00243 10.5123 9.12283 9.54935 10.412 9.52263Z" fill="url(#paint7_linear)"/>
<path d="M9.64602 9.97162C9.75006 9.93287 9.85569 9.90191 9.96253 9.8782C10.1397 9.83927 10.292 10.0086 10.2322 10.1818C10.1698 10.3627 10.0862 10.5336 9.98509 10.6927C9.98037 10.6293 9.97058 10.5654 9.95484 10.5017C9.94085 10.4448 9.92144 10.3906 9.89975 10.3382C9.92109 10.5697 9.86985 10.7949 9.7637 10.989C9.65126 11.1175 9.52518 11.2341 9.38738 11.3364C9.41081 11.2652 9.42813 11.1911 9.43739 11.1138C9.44421 11.0556 9.44526 10.9981 9.44351 10.9411C9.37059 11.2067 9.20534 11.4275 8.98955 11.5745C8.9266 11.6044 8.86259 11.6326 8.79649 11.6572C8.79649 11.6572 8.79649 11.6572 8.79632 11.6572C8.57615 11.7391 8.34865 11.787 8.11694 11.801C8.27118 10.9636 8.85035 10.2675 9.64602 9.97162Z" fill="white"/>
<path d="M10.2077 8.44148C10.9417 8.44148 11.5367 7.83941 11.5367 7.09672C11.5367 6.35402 10.9417 5.75195 10.2077 5.75195C9.47368 5.75195 8.87866 6.35402 8.87866 7.09672C8.87866 7.83941 9.47368 8.44148 10.2077 8.44148Z" fill="white"/>
<path d="M9.67712 7.97112C10.0402 7.97112 10.3345 7.67334 10.3345 7.306C10.3345 6.93866 10.0402 6.64087 9.67712 6.64087C9.31408 6.64087 9.01978 6.93866 9.01978 7.306C9.01978 7.67334 9.31408 7.97112 9.67712 7.97112Z" fill="#4C4948"/>
<path d="M13.227 9.18318C13.961 9.18318 14.556 8.58111 14.556 7.83842C14.556 7.09572 13.961 6.49365 13.227 6.49365C12.493 6.49365 11.8979 7.09572 11.8979 7.83842C11.8979 8.58111 12.493 9.18318 13.227 9.18318Z" fill="white"/>
<path d="M12.7937 8.73675C13.1567 8.73675 13.451 8.43896 13.451 8.07162C13.451 7.70428 13.1567 7.40649 12.7937 7.40649C12.4307 7.40649 12.1364 7.70428 12.1364 8.07162C12.1364 8.43896 12.4307 8.73675 12.7937 8.73675Z" fill="#4C4948"/>
<path d="M5.55397 10.1144C5.61937 9.97779 5.5454 9.81199 5.40148 9.76935C5.40061 9.76917 5.39973 9.76882 5.39886 9.76864C4.3972 9.47368 3.36651 9.73821 2.63135 10.3798L3.23483 11.784C4.22215 11.6649 5.10805 11.0458 5.55397 10.1144Z" fill="url(#paint8_linear)"/>
<path d="M3.65827 10.49C3.49669 10.3083 3.26691 10.2265 3.04343 10.2467C2.90231 10.2401 2.76188 10.1899 2.6428 10.1012L2.64385 10.1003C2.6024 10.0699 2.56288 10.0358 2.52703 9.99559L2.24846 9.6824C2.22241 9.65321 2.17782 9.65073 2.14896 9.6771L2.0227 9.79211C1.99385 9.81847 1.9914 9.86359 2.01746 9.89279L2.29603 10.206C2.3317 10.2461 2.36126 10.2895 2.38679 10.3344L2.38784 10.3336C2.46233 10.4627 2.49713 10.6094 2.48891 10.752C2.44572 10.9748 2.50203 11.2144 2.66378 11.3961C2.67218 11.4055 2.68109 11.4136 2.68984 11.4225C2.69596 11.4297 2.70103 11.4377 2.70732 11.4449L3.81531 12.6901C3.86095 12.7414 3.93912 12.7455 3.98983 12.6993L4.80088 11.9604C4.85159 11.9142 4.85562 11.8351 4.80997 11.7838L3.70199 10.5386C3.6957 10.5316 3.68835 10.5257 3.68188 10.5188C3.67366 10.5093 3.66649 10.4993 3.65827 10.49Z" fill="url(#paint9_linear)"/>
<path d="M4.65339 11.6084L4.0868 12.1245C4.01301 12.1917 3.89934 12.1857 3.83307 12.1111L3.10735 11.2953C3.0409 11.2207 3.04685 11.1057 3.12064 11.0386L3.68722 10.5225L4.65339 11.6084Z" fill="white"/>
<path d="M8.95562 11.2366L9.18802 10.8558C9.10688 10.7612 9.0462 10.6649 9.01805 10.5766C8.78389 9.84123 8.32293 9.18088 7.69812 8.76489C8.54117 8.19283 9.00266 7.14232 8.78267 6.075C8.64085 5.3867 8.24162 4.81977 7.70826 4.45439L7.22457 3.0553C7.20341 2.99426 7.12437 2.98045 7.08415 3.03053L6.38659 3.90091C6.22711 3.90746 6.0664 3.92568 5.90499 3.95983L2.82814 4.60921C2.67513 4.64159 2.52788 4.68671 2.38624 4.74121L1.40976 4.22914C1.35258 4.19906 1.28508 4.24418 1.2898 4.30929L1.39909 5.78606C1.0546 6.3367 0.9126 7.01793 1.0546 7.70624C1.33089 9.04623 2.58104 9.9274 3.9008 9.75223C3.91059 9.82053 3.92755 9.88883 3.95361 9.95589C4.48801 11.3364 5.81633 12.3142 7.37006 12.3142C8.09245 12.3142 8.76571 12.1024 9.33351 11.7375L8.95562 11.2366Z" fill="url(#paint10_linear)"/>
<path d="M8.78267 6.07525C8.64085 5.38694 8.24162 4.82002 7.70826 4.45463L7.22457 3.05554C7.20341 2.9945 7.12437 2.9807 7.08415 3.03077L6.38659 3.90115C6.22711 3.9077 6.0664 3.92593 5.90499 3.96008L2.82814 4.60946C2.67513 4.64166 2.52788 4.68678 2.38624 4.74128L1.40976 4.22921C1.35258 4.19913 1.28508 4.24425 1.2898 4.30936L1.39909 5.78612C1.0546 6.33677 0.9126 7.018 1.0546 7.70631C1.33089 9.04629 2.58104 9.92747 3.9008 9.75229C5.1123 9.59375 7.0191 9.25473 7.69812 8.76513C8.54117 8.19308 9.00266 7.14257 8.78267 6.07525Z" fill="url(#paint11_linear)"/>
<path d="M4.84825 6.43092L6.83461 4.71175L7.16267 3.0016C7.13487 2.99629 7.10461 3.00514 7.08415 3.03062L6.38659 3.901C6.22711 3.90755 6.0664 3.92577 5.905 3.95992L2.82814 4.6093C2.67513 4.6415 2.52789 4.68662 2.38624 4.74112L1.40976 4.22905C1.38039 4.21366 1.34856 4.21826 1.32495 4.23489L2.22641 5.6069L4.84825 6.43092Z" fill="url(#paint12_linear)"/>
<path d="M8.11866 5.95318C7.95935 5.18029 7.27823 4.61938 6.49918 4.61938C6.38568 4.61938 6.27132 4.63142 6.1594 4.65495C5.33383 4.82924 4.78124 5.60124 4.84822 6.43075C4.63995 5.73112 3.9952 5.23709 3.26406 5.23709C3.15057 5.23709 3.0362 5.24912 2.92429 5.27266C2.03052 5.46128 1.45485 6.35042 1.64126 7.25495C1.80057 8.02783 2.48169 8.58874 3.26074 8.58874C3.37423 8.58874 3.48842 8.57671 3.60051 8.55317C4.42608 8.37889 4.97867 7.60689 4.9117 6.77738C5.11997 7.47701 5.76472 7.97103 6.49585 7.97103C6.60934 7.97103 6.72371 7.959 6.83563 7.93547C7.72939 7.74702 8.30489 6.85771 8.11866 5.95318Z" fill="url(#paint13_linear)"/>
<path d="M3.14253 8.26444C3.91699 8.26444 4.54482 7.62918 4.54482 6.84554C4.54482 6.0619 3.91699 5.42664 3.14253 5.42664C2.36806 5.42664 1.74023 6.0619 1.74023 6.84554C1.74023 7.62918 2.36806 8.26444 3.14253 8.26444Z" fill="white"/>
<path d="M2.8479 7.053C3.17008 7.053 3.43127 6.78872 3.43127 6.46272C3.43127 6.13671 3.17008 5.87244 2.8479 5.87244C2.52571 5.87244 2.26453 6.13671 2.26453 6.46272C2.26453 6.78872 2.52571 7.053 2.8479 7.053Z" fill="#4C4948"/>
<path d="M8.99635 11.9272C8.93707 10.6071 8.12356 9.47993 6.89632 8.97724C6.73806 8.9123 6.5541 8.94999 6.5172 9.11879C6.51702 9.11985 6.51667 9.12091 6.5165 9.12197C6.25524 10.3222 6.65272 11.5132 7.46448 12.3107C8.0141 12.2965 8.53276 12.1603 8.99635 11.9272Z" fill="url(#paint14_linear)"/>
<path d="M7.00163 12.8689L6.61342 12.3239V11.9175C6.61342 11.8718 6.57687 11.8348 6.53176 11.8348H6.52983C6.48472 11.8348 6.44817 11.8718 6.44817 11.9175V12.3046L6.04649 12.8689C6.01938 12.9068 6.02883 12.9598 6.0673 12.986C6.10385 13.0108 6.15334 13.0018 6.17904 12.9657L6.44817 12.5877V12.9154C6.44817 12.9611 6.48472 12.9981 6.52983 12.9981H6.53176C6.57687 12.9981 6.61342 12.9611 6.61342 12.9154V12.6065L6.86908 12.9655C6.89479 13.0016 6.94428 13.0106 6.98082 12.9859C7.0193 12.96 7.02874 12.9069 7.00163 12.8689Z" fill="#4C4948"/>
<path d="M8.49236 12.8689L8.10414 12.3239V11.9175C8.10414 11.8718 8.0676 11.8348 8.02248 11.8348H8.02056C7.97544 11.8348 7.93889 11.8718 7.93889 11.9175V12.3046L7.53721 12.8689C7.51011 12.9068 7.51955 12.9598 7.55802 12.986C7.59457 13.0108 7.64406 13.0018 7.66976 12.9657L7.93889 12.5877V12.9154C7.93889 12.9611 7.97544 12.9981 8.02056 12.9981H8.02248C8.0676 12.9981 8.10414 12.9611 8.10414 12.9154V12.6065L8.35981 12.9655C8.38551 13.0016 8.435 13.0106 8.47155 12.9859C8.50985 12.96 8.51929 12.9069 8.49236 12.8689Z" fill="#4C4948"/>
<path d="M4.58054 8.47247C4.68302 8.81839 5.06633 9.24181 5.76127 9.3271C5.81023 9.33312 5.84608 9.28233 5.82527 9.23721C5.6142 8.7807 5.84696 8.40364 5.68765 8.02144C5.61281 7.84184 5.32864 7.51415 4.92381 7.68118C4.58561 7.82061 4.50325 8.21112 4.58054 8.47247Z" fill="url(#paint15_linear)"/>
<path d="M6.52875 7.54984C7.30322 7.54984 7.93104 6.91458 7.93104 6.13094C7.93104 5.3473 7.30322 4.71204 6.52875 4.71204C5.75429 4.71204 5.12646 5.3473 5.12646 6.13094C5.12646 6.91458 5.75429 7.54984 6.52875 7.54984Z" fill="white"/>
<path d="M6.43676 7.12868C6.75895 7.12868 7.02013 6.8644 7.02013 6.5384C7.02013 6.2124 6.75895 5.94812 6.43676 5.94812C6.11458 5.94812 5.85339 6.2124 5.85339 6.5384C5.85339 6.8644 6.11458 7.12868 6.43676 7.12868Z" fill="#4C4948"/>
<path d="M6.76419 8.89908C6.60314 8.88032 6.46202 9.01586 6.47059 9.17971C6.47059 9.18077 6.47076 9.18183 6.47076 9.18272C6.56117 10.8888 7.93845 12.2152 9.59903 12.2523C9.60287 12.152 9.60287 12.0506 9.59745 11.9482C9.51247 10.3445 8.29012 9.0762 6.76419 8.89908Z" fill="url(#paint16_linear)"/>
<path d="M7.62315 9.51808C7.50406 9.46039 7.38217 9.41173 7.25802 9.37174C7.05237 9.30557 6.85302 9.48923 6.90478 9.70121C6.95881 9.92257 7.03908 10.1349 7.14155 10.3348C7.15414 10.2602 7.17285 10.1857 7.19839 10.1119C7.22129 10.0459 7.25015 9.98397 7.2818 9.92416C7.23091 10.1961 7.26694 10.4691 7.37151 10.7114C7.49077 10.8765 7.62734 11.0288 7.77966 11.1658C7.75972 11.0789 7.7473 10.989 7.74486 10.8963C7.74311 10.8264 7.74818 10.7581 7.75675 10.6909C7.81393 11.0139 7.98565 11.2944 8.2254 11.4933C8.29675 11.5359 8.36967 11.5764 8.44521 11.6131C8.44521 11.6131 8.44521 11.6131 8.44539 11.6131C8.69755 11.735 8.96196 11.8176 9.23511 11.8603C9.144 10.8494 8.53387 9.95866 7.62315 9.51808Z" fill="white"/>
<path d="M4.54505 8.20337C4.54417 8.51886 4.76031 8.97183 5.32392 9.21884C5.35925 9.23424 5.39702 9.20274 5.39125 9.16435C5.32427 8.72606 5.61561 8.47073 5.57783 8.11012C5.56017 7.94167 5.40541 7.59681 5.02734 7.63273C4.71117 7.66263 4.54575 7.96627 4.54505 8.20337Z" fill="#FDD23E"/>
<path d="M4.91298 7.6571C4.67148 7.73956 4.54557 7.99666 4.54505 8.20333C4.54417 8.52094 4.76311 8.97798 5.33529 9.22376C5.35103 9.23048 5.36414 9.21013 5.35225 9.19775C4.88412 8.71469 4.76713 7.94676 4.91298 7.6571Z" fill="url(#paint17_linear)"/>
<path d="M11.7329 9.15043C11.5883 9.40364 11.2079 9.66481 10.6447 9.60058C10.605 9.59597 10.5861 9.54926 10.6109 9.51759C10.8617 9.19785 10.7478 8.85671 10.944 8.58563C11.0362 8.45823 11.3205 8.25369 11.6087 8.46195C11.8493 8.63571 11.8422 8.95898 11.7329 9.15043Z" fill="url(#paint18_linear)"/>
<path d="M11.8186 8.92196C11.7758 9.15764 11.5519 9.4657 11.0967 9.57063C11.0682 9.57718 11.0443 9.54833 11.0541 9.52038C11.1646 9.20241 10.9822 8.97062 11.06 8.70644C11.0964 8.58311 11.2595 8.34725 11.5371 8.42758C11.7689 8.49446 11.8508 8.74466 11.8186 8.92196Z" fill="#FDD23E"/>
<path d="M11.619 8.46191C11.7881 8.55764 11.8467 8.76749 11.8186 8.92197C11.7754 9.15925 11.5488 9.46996 11.0874 9.57276C11.0749 9.57559 11.0679 9.55843 11.0783 9.551C11.4947 9.25621 11.6881 8.69902 11.619 8.46191Z" fill="url(#paint19_linear)"/>
<defs>
<linearGradient id="paint0_linear" x1="11.4919" y1="10.7355" x2="14.1624" y2="10.8019" gradientUnits="userSpaceOnUse">
<stop offset="0.1054" stop-color="#006EB6"/>
<stop offset="0.5285" stop-color="#0099CC"/>
<stop offset="1" stop-color="#3DA1CD"/>
</linearGradient>
<linearGradient id="paint1_linear" x1="13.3399" y1="11.9854" x2="14.0462" y2="10.6914" gradientUnits="userSpaceOnUse">
<stop stop-color="#4C4948"/>
<stop offset="1" stop-color="#727171"/>
</linearGradient>
<linearGradient id="paint2_linear" x1="8.30703" y1="12.2303" x2="13.2444" y2="5.52906" gradientUnits="userSpaceOnUse">
<stop stop-color="#005AA0"/>
<stop offset="0.4685" stop-color="#0099CC"/>
<stop offset="1" stop-color="#3DA1CD"/>
</linearGradient>
<linearGradient id="paint3_linear" x1="15.9452" y1="5.64153" x2="9.12581" y2="8.10599" gradientUnits="userSpaceOnUse">
<stop stop-color="#D7E7AF"/>
<stop offset="0.9516" stop-color="#0099CC" stop-opacity="0"/>
</linearGradient>
<linearGradient id="paint4_linear" x1="12.2373" y1="3.91193" x2="12.3066" y2="6.54798" gradientUnits="userSpaceOnUse">
<stop offset="0.1054" stop-color="#006EB6"/>
<stop offset="1" stop-color="#3DA1CD" stop-opacity="0"/>
</linearGradient>
<linearGradient id="paint5_linear" x1="12.2856" y1="4.56143" x2="11.6281" y2="7.82791" gradientUnits="userSpaceOnUse">
<stop offset="0.1054" stop-color="#006EB6"/>
<stop offset="1" stop-color="#3DA1CD" stop-opacity="0"/>
</linearGradient>
<linearGradient id="paint6_linear" x1="9.37039" y1="10.2512" x2="9.85504" y2="12.2673" gradientUnits="userSpaceOnUse">
<stop stop-color="#005AA0"/>
<stop offset="1" stop-color="#005AA0" stop-opacity="0"/>
</linearGradient>
<linearGradient id="paint7_linear" x1="8.80292" y1="11.0849" x2="11.8472" y2="9.16272" gradientUnits="userSpaceOnUse">
<stop stop-color="#005AA0"/>
<stop offset="0.7389" stop-color="#0099CC"/>
<stop offset="1" stop-color="#3DA1CD"/>
</linearGradient>
<linearGradient id="paint8_linear" x1="4.87706" y1="10.0835" x2="2.6494" y2="11.3096" gradientUnits="userSpaceOnUse">
<stop offset="0.1464" stop-color="#D34C3A"/>
<stop offset="0.4996" stop-color="#EC6D4E"/>
<stop offset="1" stop-color="#EF8465"/>
</linearGradient>
<linearGradient id="paint9_linear" x1="4.38845" y1="12.0005" x2="1.80245" y2="10.359" gradientUnits="userSpaceOnUse">
<stop stop-color="#4C4948"/>
<stop offset="1" stop-color="#727171"/>
</linearGradient>
<linearGradient id="paint10_linear" x1="7.95027" y1="12.1228" x2="3.48621" y2="4.55978" gradientUnits="userSpaceOnUse">
<stop stop-color="#D34C3A"/>
<stop offset="0.2874" stop-color="#EC6D4E"/>
<stop offset="1" stop-color="#EF8465"/>
</linearGradient>
<linearGradient id="paint11_linear" x1="-0.112861" y1="5.15334" x2="6.7719" y2="6.71" gradientUnits="userSpaceOnUse">
<stop offset="0.0025" stop-color="#FABF13"/>
<stop offset="1" stop-color="#EF8465" stop-opacity="0"/>
</linearGradient>
<linearGradient id="paint12_linear" x1="4.25574" y1="6.25405" x2="4.23841" y2="2.50531" gradientUnits="userSpaceOnUse">
<stop stop-color="#DB4F3C" stop-opacity="0"/>
<stop offset="1" stop-color="#D34C3A"/>
</linearGradient>
<linearGradient id="paint13_linear" x1="5.16867" y1="8.19103" x2="4.20814" y2="3.03413" gradientUnits="userSpaceOnUse">
<stop stop-color="#DB4F3C" stop-opacity="0"/>
<stop offset="1" stop-color="#D34C3A"/>
</linearGradient>
<linearGradient id="paint14_linear" x1="7.7797" y1="11.5938" x2="7.50132" y2="8.83159" gradientUnits="userSpaceOnUse">
<stop stop-color="#DB4F3C" stop-opacity="0"/>
<stop offset="1" stop-color="#D34C3A"/>
</linearGradient>
<linearGradient id="paint15_linear" x1="5.27604" y1="9.26483" x2="5.09425" y2="7.90454" gradientUnits="userSpaceOnUse">
<stop stop-color="#DB4F3C" stop-opacity="0"/>
<stop offset="1" stop-color="#D34C3A"/>
</linearGradient>
<linearGradient id="paint16_linear" x1="6.87753" y1="8.94016" x2="9.03261" y2="11.8983" gradientUnits="userSpaceOnUse">
<stop offset="0.4836" stop-color="#EC6D4E"/>
<stop offset="1" stop-color="#EF8465"/>
</linearGradient>
<linearGradient id="paint17_linear" x1="5.12588" y1="7.57238" x2="4.92961" y2="8.79326" gradientUnits="userSpaceOnUse">
<stop stop-color="#FCD475" stop-opacity="0"/>
<stop offset="1" stop-color="#E7A100"/>
</linearGradient>
<linearGradient id="paint18_linear" x1="12.1179" y1="8.80589" x2="10.7367" y2="9.05791" gradientUnits="userSpaceOnUse">
<stop stop-color="#005AA0"/>
<stop offset="1" stop-color="#005AA0" stop-opacity="0"/>
</linearGradient>
<linearGradient id="paint19_linear" x1="11.495" y1="8.42441" x2="11.4694" y2="9.36413" gradientUnits="userSpaceOnUse">
<stop stop-color="#FCD475" stop-opacity="0"/>
<stop offset="1" stop-color="#E7A100"/>
</linearGradient>
</defs>
</svg>
