<?xml version="1.0" encoding="utf-8"?>
<!-- Generator: Adobe Illustrator 24.1.0, SVG Export Plug-In . SVG Version: 6.00 Build 0)  -->
<svg version="1.1" id="圖層_1" xmlns="http://www.w3.org/2000/svg" xmlns:xlink="http://www.w3.org/1999/xlink" x="0px" y="0px"
	 viewBox="0 0 158 44" style="enable-background:new 0 0 158 44;" xml:space="preserve">
<style type="text/css">
	.st0{fill:#4C4948;}
	.st1{fill:url(#SVGID_1_);}
	.st2{fill:url(#SVGID_2_);}
	.st3{fill:#FFFFFF;}
	.st4{fill:url(#SVGID_3_);}
	.st5{fill:url(#SVGID_4_);}
	.st6{fill:url(#SVGID_5_);}
	.st7{fill:url(#SVGID_6_);}
	.st8{fill:url(#SVGID_7_);}
	.st9{fill:url(#SVGID_8_);}
	.st10{fill:url(#SVGID_9_);}
	.st11{fill:url(#SVGID_10_);}
	.st12{fill:url(#SVGID_11_);}
	.st13{fill:url(#SVGID_12_);}
	.st14{fill:url(#SVGID_13_);}
	.st15{fill:url(#SVGID_14_);}
	.st16{fill:url(#SVGID_15_);}
	.st17{fill:url(#SVGID_16_);}
	.st18{fill:url(#SVGID_17_);}
	.st19{fill:#FDD23E;}
	.st20{fill:url(#SVGID_18_);}
	.st21{fill:url(#SVGID_19_);}
	.st22{fill:url(#SVGID_20_);}
	.st23{fill-rule:evenodd;clip-rule:evenodd;fill:#3C4145;}
</style>
<g>
	<path class="st0" d="M39.8,43l-1.7-2.4v-1.8c0-0.2-0.2-0.4-0.4-0.4h0c-0.2,0-0.4,0.2-0.4,0.4v1.7L35.6,43c-0.1,0.2-0.1,0.4,0.1,0.5
		c0.2,0.1,0.4,0.1,0.5-0.1l1.2-1.6v1.4c0,0.2,0.2,0.4,0.4,0.4h0c0.2,0,0.4-0.2,0.4-0.4v-1.3l1.1,1.6c0.1,0.2,0.3,0.2,0.5,0.1
		C39.9,43.4,39.9,43.2,39.8,43z"/>
	
		<linearGradient id="SVGID_1_" gradientUnits="userSpaceOnUse" x1="46.5031" y1="12.2947" x2="58.3394" y2="11.9954" gradientTransform="matrix(1 0 0 -1 0 46)">
		<stop  offset="0.1054" style="stop-color:#006EB6"/>
		<stop  offset="0.5285" style="stop-color:#0099CC"/>
		<stop  offset="1" style="stop-color:#3DA1CD"/>
	</linearGradient>
	<path class="st1" d="M55.1,31.6c-4.5-1.5-9.5-0.4-13.1,2.7c1.1,0.7,2.3,1.3,3.5,1.7h0c0.4,0.1,0.8,0.2,1.1,0.3
		c1.5,0.1,2.9-0.3,4.2-1.2c-0.2,0.3-0.4,0.5-0.6,0.7c-0.3,0.3-0.6,0.6-1,0.8c3.4,0.1,6.7-1.1,9.3-3.3C57.5,32.6,56.3,32,55.1,31.6z"
		/>
	
		<linearGradient id="SVGID_2_" gradientUnits="userSpaceOnUse" x1="54.7052" y1="6.8421" x2="57.7543" y2="12.5241" gradientTransform="matrix(1 0 0 -1 0 46)">
		<stop  offset="0" style="stop-color:#4C4948"/>
		<stop  offset="1" style="stop-color:#727171"/>
	</linearGradient>
	<path class="st2" d="M61.5,34.7c0.1,0,0.1-0.2,0-0.2l-5-2.4c-0.8-0.4-1.7,0-2.1,0.7l-2.4,5c-0.2,0.4-0.8,0.6-1.2,0.7
		c-0.2,0-0.2,0.3-0.1,0.4l5,2.4c0.8,0.4,1.7,0,2.1-0.7l2.4-5C60.4,35.1,60.9,34.8,61.5,34.7z"/>
	<path class="st3" d="M58.1,36.4c0.4-1-0.1-2-1-2.4c-1-0.4-2.1,0.1-2.4,1c-0.1,0.3-0.2,0.6-0.1,1l0,0l0.3,3l0,0
		c0,0.1,0.1,0.2,0.1,0.2c0.1,0,0.2,0,0.2,0l0,0l2.3-1.9l0,0C57.7,36.9,58,36.7,58.1,36.4z M56,36.5c-0.5-0.2-0.7-0.7-0.5-1.2
		c0.2-0.5,0.7-0.7,1.2-0.5c0.5,0.2,0.7,0.7,0.5,1.2C57,36.5,56.5,36.7,56,36.5z"/>
	
		<linearGradient id="SVGID_3_" gradientUnits="userSpaceOnUse" x1="32.5058" y1="5.6945" x2="53.908" y2="35.2428" gradientTransform="matrix(1 0 0 -1 0 46)">
		<stop  offset="0" style="stop-color:#005AA0"/>
		<stop  offset="0.4685" style="stop-color:#0099CC"/>
		<stop  offset="1" style="stop-color:#3DA1CD"/>
	</linearGradient>
	<path class="st4" d="M32.2,34c0.9-2.7,2.6-5.1,4.9-6.6c-3.1-2.1-4.9-5.9-4-9.8c0.5-2.5,2-4.6,4-5.9l1.8-5.1
		c0.1-0.2,0.4-0.3,0.5-0.1L42,9.5c0.6,0,1.2,0.1,1.8,0.2l11.4,2.4c0.6,0.1,1.1,0.3,1.6,0.5l3.6-1.9c0.2-0.1,0.5,0.1,0.4,0.3
		l-0.4,5.4c1.3,2,1.8,4.5,1.3,7c-1,4.9-5.7,8.1-10.6,7.5c0,0.2-0.1,0.5-0.2,0.7c-2,5.1-6.9,8.6-12.7,8.6c-3.6,0-6.8-1.4-9.2-3.5
		C30.5,36.3,31.9,34.9,32.2,34z"/>
	
		<linearGradient id="SVGID_4_" gradientUnits="userSpaceOnUse" x1="66.2188" y1="34.5527" x2="36.1138" y2="23.4859" gradientTransform="matrix(1 0 0 -1 0 46)">
		<stop  offset="0" style="stop-color:#D7E7AF"/>
		<stop  offset="0.9516" style="stop-color:#0099CC;stop-opacity:0"/>
	</linearGradient>
	<path class="st5" d="M61.8,23.5c0.5-2.5,0-5-1.3-7L61,11c0-0.2-0.2-0.4-0.4-0.3l-3.6,1.9c-0.5-0.2-1.1-0.4-1.6-0.5L43.8,9.8
		c-0.6-0.1-1.2-0.2-1.8-0.2l-2.6-3.2c-0.1-0.2-0.4-0.1-0.5,0.1l-1.8,5.1c-2,1.3-3.5,3.4-4,5.9c-0.8,3.9,0.9,7.7,4,9.8
		c5.4,4.1,14.1,3.6,14.1,3.6c3.2,0.5,6-1,6.8-1.7C60,27.9,61.3,25.9,61.8,23.5z"/>
	
		<linearGradient id="SVGID_5_" gradientUnits="userSpaceOnUse" x1="49.8083" y1="42.0266" x2="50.105" y2="30.5402" gradientTransform="matrix(1 0 0 -1 0 46)">
		<stop  offset="0.1054" style="stop-color:#006EB6"/>
		<stop  offset="1" style="stop-color:#3DA1CD;stop-opacity:0"/>
	</linearGradient>
	<path class="st6" d="M60.8,10.7c-0.1,0-0.2,0-0.3,0l-3.6,1.9c-0.5-0.2-1.1-0.4-1.6-0.5L43.8,9.8c-0.6-0.1-1.2-0.2-1.8-0.2l-2.6-3.2
		c-0.1-0.1-0.2-0.1-0.4-0.1l1.2,6.2l6.7,8.6l10.9-3.9L60.8,10.7z"/>
	
		<linearGradient id="SVGID_6_" gradientUnits="userSpaceOnUse" x1="49.9948" y1="39.2015" x2="47.1744" y2="24.9497" gradientTransform="matrix(1 0 0 -1 0 46)">
		<stop  offset="0.1054" style="stop-color:#006EB6"/>
		<stop  offset="1" style="stop-color:#3DA1CD;stop-opacity:0"/>
	</linearGradient>
	<path class="st7" d="M60.3,22.5c0.7-3-0.9-6.1-3.7-7.4c-0.4-0.2-0.8-0.3-1.3-0.4c-3.3-0.7-6.5,1.1-7.6,4.2c0.4-2.8-1.2-5.6-3.8-6.8
		c-0.4-0.2-0.8-0.3-1.3-0.4c-3.5-0.8-7.1,1.5-7.8,5c-0.7,3,0.9,6.1,3.7,7.4c0.4,0.2,0.8,0.3,1.3,0.4c3.3,0.7,6.5-1.1,7.6-4.2
		c-0.4,2.8,1.2,5.6,3.8,6.8c0.4,0.2,0.8,0.3,1.3,0.4C56,28.2,59.5,26,60.3,22.5z"/>
	
		<linearGradient id="SVGID_7_" gradientUnits="userSpaceOnUse" x1="37.1066" y1="14.4054" x2="39.1864" y2="5.6043" gradientTransform="matrix(1 0 0 -1 0 46)">
		<stop  offset="0" style="stop-color:#005AA0"/>
		<stop  offset="1" style="stop-color:#005AA0;stop-opacity:0"/>
	</linearGradient>
	<path class="st8" d="M42.5,29.4C42.5,29.4,42.5,29.4,42.5,29.4c-0.1-0.6-0.8-1-1.4-0.8c-4.6,1.6-7.8,5.8-8.2,10.7
		c1.7,0.7,3.5,1.1,5.4,1.1c0.2,0,0.4,0,0.7,0C41.8,37.5,43.3,33.5,42.5,29.4z"/>
	
		<linearGradient id="SVGID_8_" gradientUnits="userSpaceOnUse" x1="34.5906" y1="10.7628" x2="47.9517" y2="19.3443" gradientTransform="matrix(1 0 0 -1 0 46)">
		<stop  offset="0" style="stop-color:#005AA0"/>
		<stop  offset="0.7389" style="stop-color:#0099CC"/>
		<stop  offset="1" style="stop-color:#3DA1CD"/>
	</linearGradient>
	<path class="st9" d="M41.7,28.4c0.6,0,1.1,0.5,1,1.1c0,0,0,0,0,0c-0.9,6.2-6.5,10.5-12.6,10.1c0-0.4,0.1-0.7,0.1-1.1
		C31,32.7,36,28.5,41.7,28.4z"/>
	<path class="st3" d="M38.3,30.4c0.5-0.2,0.9-0.3,1.4-0.4c0.8-0.2,1.5,0.6,1.2,1.3c-0.3,0.8-0.6,1.5-1.1,2.2c0-0.3-0.1-0.6-0.1-0.8
		c-0.1-0.2-0.1-0.5-0.2-0.7c0.1,1-0.1,2-0.6,2.8c-0.5,0.6-1.1,1.1-1.7,1.5c0.1-0.3,0.2-0.6,0.2-1c0-0.3,0-0.5,0-0.8
		c-0.3,1.2-1.1,2.1-2,2.8c-0.3,0.1-0.6,0.3-0.9,0.4c0,0,0,0,0,0c-1,0.4-2,0.6-3,0.6C32.2,34.7,34.8,31.7,38.3,30.4z"/>
	<path class="st3" d="M40.8,23.7c3.3,0,5.9-2.6,5.9-5.9c0-3.2-2.6-5.9-5.9-5.9s-5.9,2.6-5.9,5.9C34.9,21.1,37.6,23.7,40.8,23.7z"/>
	<path class="st0" d="M38.5,21.7c1.6,0,2.9-1.3,2.9-2.9c0-1.6-1.3-2.9-2.9-2.9s-2.9,1.3-2.9,2.9C35.5,20.4,36.9,21.7,38.5,21.7z"/>
	<path class="st3" d="M54.2,26.9c3.3,0,5.9-2.6,5.9-5.9c0-3.2-2.6-5.9-5.9-5.9c-3.3,0-5.9,2.6-5.9,5.9
		C48.3,24.3,50.9,26.9,54.2,26.9z"/>
	<path class="st0" d="M52.3,25c1.6,0,2.9-1.3,2.9-2.9c0-1.6-1.3-2.9-2.9-2.9s-2.9,1.3-2.9,2.9C49.4,23.7,50.7,25,52.3,25z"/>
	
		<linearGradient id="SVGID_9_" gradientUnits="userSpaceOnUse" x1="17.1642" y1="15.1711" x2="7.3696" y2="9.6876" gradientTransform="matrix(1 0 0 -1 0 46)">
		<stop  offset="0.1464" style="stop-color:#D34C3A"/>
		<stop  offset="0.4996" style="stop-color:#EC6D4E"/>
		<stop  offset="1" style="stop-color:#EF8465"/>
	</linearGradient>
	<path class="st10" d="M20.2,31c0.3-0.6,0-1.3-0.7-1.5c0,0,0,0,0,0c-4.4-1.3-9-0.1-12.3,2.7l2.7,6.1C14.3,37.8,18.2,35.1,20.2,31z"
		/>
	
		<linearGradient id="SVGID_10_" gradientUnits="userSpaceOnUse" x1="15.009" y1="6.7672" x2="3.6601" y2="14.0949" gradientTransform="matrix(1 0 0 -1 0 46)">
		<stop  offset="0" style="stop-color:#4C4948"/>
		<stop  offset="1" style="stop-color:#727171"/>
	</linearGradient>
	<path class="st11" d="M11.8,32.6c-0.7-0.8-1.7-1.1-2.7-1.1c-0.6,0-1.2-0.2-1.8-0.6l0,0c-0.2-0.1-0.4-0.3-0.5-0.5l-1.2-1.4
		c-0.1-0.1-0.3-0.1-0.4,0l-0.6,0.5c-0.1,0.1-0.1,0.3,0,0.4l1.2,1.4C5.9,31.6,6,31.8,6.1,32l0,0c0.3,0.6,0.5,1.2,0.4,1.8
		c-0.2,1,0.1,2,0.8,2.8c0,0,0.1,0.1,0.1,0.1c0,0,0,0.1,0.1,0.1l4.9,5.4c0.2,0.2,0.5,0.2,0.8,0l3.6-3.2c0.2-0.2,0.2-0.5,0-0.8
		L12,32.8c0,0-0.1-0.1-0.1-0.1C11.9,32.7,11.8,32.7,11.8,32.6z"/>
	<path class="st3" d="M16.2,37.5l-2.5,2.2c-0.3,0.3-0.8,0.3-1.1-0.1l-3.2-3.6C9,35.8,9.1,35.3,9.4,35l2.5-2.2L16.2,37.5z"/>
	
		<linearGradient id="SVGID_11_" gradientUnits="userSpaceOnUse" x1="30.678" y1="6.1747" x2="11.3886" y2="39.4176" gradientTransform="matrix(1 0 0 -1 0 46)">
		<stop  offset="0" style="stop-color:#D34C3A"/>
		<stop  offset="0.2874" style="stop-color:#EC6D4E"/>
		<stop  offset="1" style="stop-color:#EF8465"/>
	</linearGradient>
	<path class="st12" d="M35.3,35.9l1-1.7c-0.4-0.4-0.6-0.8-0.8-1.2c-1-3.2-3.1-6.1-5.9-7.9c3.7-2.5,5.8-7.1,4.8-11.7
		c-0.6-3-2.4-5.5-4.8-7.1l-2.1-6.1C27.5,0,27.1-0.1,27,0.1l-3.1,3.8c-0.7,0-1.4,0.1-2.1,0.3L8.1,7c-0.7,0.1-1.3,0.3-2,0.6L1.8,5.4
		C1.6,5.2,1.3,5.4,1.3,5.7l0.5,6.4c-1.5,2.4-2.2,5.4-1.5,8.4c1.2,5.8,6.8,9.7,12.6,8.9c0,0.3,0.1,0.6,0.2,0.9
		c2.4,6,8.3,10.3,15.1,10.3c3.2,0,6.2-0.9,8.7-2.5L35.3,35.9z"/>
	
		<linearGradient id="SVGID_12_" gradientUnits="userSpaceOnUse" x1="-4.9205" y1="36.6701" x2="25.5436" y2="29.6636" gradientTransform="matrix(1 0 0 -1 0 46)">
		<stop  offset="2.500000e-03" style="stop-color:#FABF13"/>
		<stop  offset="1" style="stop-color:#EF8465;stop-opacity:0"/>
	</linearGradient>
	<path class="st13" d="M34.5,13.4c-0.6-3-2.4-5.5-4.8-7.1l-2.1-6.1C27.5,0,27.1-0.1,27,0.1l-3.1,3.8c-0.7,0-1.4,0.1-2.1,0.3L8.1,7
		c-0.7,0.1-1.3,0.3-2,0.6L1.8,5.4C1.6,5.2,1.3,5.4,1.3,5.7l0.5,6.4c-1.5,2.4-2.2,5.4-1.5,8.4c1.2,5.8,6.8,9.7,12.6,8.9
		c5.4-0.7,13.8-2.2,16.8-4.3C33.4,22.6,35.5,18.1,34.5,13.4z"/>
	
		<linearGradient id="SVGID_13_" gradientUnits="userSpaceOnUse" x1="14.4297" y1="31.8206" x2="14.3555" y2="48.1551" gradientTransform="matrix(1 0 0 -1 0 46)">
		<stop  offset="0" style="stop-color:#DB4F3C;stop-opacity:0"/>
		<stop  offset="1" style="stop-color:#D34C3A"/>
	</linearGradient>
	<path class="st14" d="M17.1,15l8.8-7.5L27.3,0c-0.1,0-0.3,0-0.3,0.1l-3.1,3.8c-0.7,0-1.4,0.1-2.1,0.3L8.1,7c-0.7,0.1-1.3,0.3-2,0.6
		L1.8,5.4c-0.1-0.1-0.3,0-0.4,0l4,6L17.1,15z"/>
	
		<linearGradient id="SVGID_14_" gradientUnits="userSpaceOnUse" x1="18.4639" y1="23.3782" x2="14.3448" y2="45.8737" gradientTransform="matrix(1 0 0 -1 0 46)">
		<stop  offset="0" style="stop-color:#DB4F3C;stop-opacity:0"/>
		<stop  offset="1" style="stop-color:#D34C3A"/>
	</linearGradient>
	<path class="st15" d="M31.6,12.9c-0.7-3.4-3.7-5.8-7.2-5.8c-0.5,0-1,0.1-1.5,0.2c-3.7,0.8-6.1,4.1-5.8,7.7c-0.9-3-3.8-5.2-7-5.2
		c-0.5,0-1,0.1-1.5,0.2c-4,0.8-6.5,4.7-5.7,8.6c0.7,3.4,3.7,5.8,7.2,5.8c0.5,0,1-0.1,1.5-0.2c3.7-0.8,6.1-4.1,5.8-7.7
		c0.9,3,3.8,5.2,7,5.2c0.5,0,1-0.1,1.5-0.2C29.8,20.7,32.4,16.8,31.6,12.9z"/>
	<path class="st3" d="M9.5,22.9c3.4,0,6.2-2.8,6.2-6.2s-2.8-6.2-6.2-6.2c-3.4,0-6.2,2.8-6.2,6.2S6.1,22.9,9.5,22.9z"/>
	<path class="st0" d="M8.2,17.7c1.4,0,2.6-1.2,2.6-2.6s-1.2-2.6-2.6-2.6s-2.6,1.2-2.6,2.6S6.8,17.7,8.2,17.7z"/>
	
		<linearGradient id="SVGID_15_" gradientUnits="userSpaceOnUse" x1="30.0468" y1="8.5539" x2="28.8539" y2="20.5938" gradientTransform="matrix(1 0 0 -1 0 46)">
		<stop  offset="0" style="stop-color:#DB4F3C;stop-opacity:0"/>
		<stop  offset="1" style="stop-color:#D34C3A"/>
	</linearGradient>
	<path class="st16" d="M35.4,38.9c-0.3-5.8-3.9-10.7-9.3-12.9c-0.7-0.3-1.5-0.1-1.7,0.6c0,0,0,0,0,0c-1.2,5.2,0.6,10.4,4.2,13.9
		C31.1,40.5,33.4,39.9,35.4,38.9z"/>
	<path class="st0" d="M26.6,43l-1.7-2.4v-1.8c0-0.2-0.2-0.4-0.4-0.4h0c-0.2,0-0.4,0.2-0.4,0.4v1.7L22.4,43c-0.1,0.2-0.1,0.4,0.1,0.5
		c0.2,0.1,0.4,0.1,0.5-0.1l1.2-1.6v1.4c0,0.2,0.2,0.4,0.4,0.4h0c0.2,0,0.4-0.2,0.4-0.4v-1.3l1.1,1.6c0.1,0.2,0.3,0.2,0.5,0.1
		C26.7,43.4,26.7,43.2,26.6,43z"/>
	<path class="st0" d="M33.2,43l-1.7-2.4v-1.8c0-0.2-0.2-0.4-0.4-0.4h0c-0.2,0-0.4,0.2-0.4,0.4v1.7L29,43c-0.1,0.2-0.1,0.4,0.1,0.5
		c0.2,0.1,0.4,0.1,0.5-0.1l1.2-1.6v1.4c0,0.2,0.2,0.4,0.4,0.4h0c0.2,0,0.4-0.2,0.4-0.4v-1.3l1.1,1.6c0.1,0.2,0.3,0.2,0.5,0.1
		C33.3,43.4,33.3,43.2,33.2,43z"/>
	
		<linearGradient id="SVGID_16_" gradientUnits="userSpaceOnUse" x1="18.9467" y1="18.7015" x2="18.1675" y2="24.6322" gradientTransform="matrix(1 0 0 -1 0 46)">
		<stop  offset="0" style="stop-color:#DB4F3C;stop-opacity:0"/>
		<stop  offset="1" style="stop-color:#D34C3A"/>
	</linearGradient>
	<path class="st17" d="M15.9,23.8c0.5,1.5,2.2,3.4,5.2,3.7c0.2,0,0.4-0.2,0.3-0.4c-0.9-2,0.1-3.6-0.6-5.3c-0.3-0.8-1.6-2.2-3.4-1.5
		C15.9,21,15.5,22.7,15.9,23.8z"/>
	<path class="st3" d="M24.5,19.8c3.4,0,6.2-2.8,6.2-6.2c0-3.4-2.8-6.2-6.2-6.2s-6.2,2.8-6.2,6.2C18.3,17.1,21.1,19.8,24.5,19.8z"/>
	<path class="st0" d="M24.1,18c1.4,0,2.6-1.2,2.6-2.6s-1.2-2.6-2.6-2.6c-1.4,0-2.6,1.2-2.6,2.6S22.7,18,24.1,18z"/>
	
		<linearGradient id="SVGID_17_" gradientUnits="userSpaceOnUse" x1="26.0865" y1="20.1427" x2="35.4267" y2="7.1015" gradientTransform="matrix(1 0 0 -1 0 46)">
		<stop  offset="0.4836" style="stop-color:#EC6D4E"/>
		<stop  offset="1" style="stop-color:#EF8465"/>
	</linearGradient>
	<path class="st18" d="M25.5,25.7c-0.7-0.1-1.3,0.5-1.3,1.2c0,0,0,0,0,0c0.4,7.4,6.5,13.2,13.9,13.4c0-0.4,0-0.9,0-1.3
		C37.7,32,32.3,26.5,25.5,25.7z"/>
	<path class="st3" d="M29.4,28.4c-0.5-0.3-1.1-0.5-1.6-0.6c-0.9-0.3-1.8,0.5-1.6,1.4c0.2,1,0.6,1.9,1,2.8c0.1-0.3,0.1-0.6,0.3-1
		c0.1-0.3,0.2-0.6,0.4-0.8c-0.2,1.2-0.1,2.4,0.4,3.4c0.5,0.7,1.1,1.4,1.8,2c-0.1-0.4-0.1-0.8-0.2-1.2c0-0.3,0-0.6,0.1-0.9
		c0.3,1.4,1,2.6,2.1,3.5c0.3,0.2,0.6,0.4,1,0.5c0,0,0,0,0,0c1.1,0.5,2.3,0.9,3.5,1.1C36.1,34.2,33.4,30.3,29.4,28.4z"/>
	<path class="st19" d="M15.7,22.7c0,1.4,1,3.3,3.5,4.4c0.2,0.1,0.3-0.1,0.3-0.2c-0.3-1.9,1-3,0.8-4.6c-0.1-0.7-0.8-2.2-2.4-2.1
		C16.4,20.3,15.7,21.6,15.7,22.7z"/>
	
		<linearGradient id="SVGID_18_" gradientUnits="userSpaceOnUse" x1="18.2792" y1="26.0782" x2="17.4377" y2="20.754" gradientTransform="matrix(1 0 0 -1 0 46)">
		<stop  offset="0" style="stop-color:#FCD475;stop-opacity:0"/>
		<stop  offset="1" style="stop-color:#E7A100"/>
	</linearGradient>
	<path class="st20" d="M17.3,20.3c-1.1,0.4-1.6,1.5-1.6,2.4c0,1.4,1,3.4,3.5,4.4c0.1,0,0.1-0.1,0.1-0.1
		C17.2,24.9,16.7,21.6,17.3,20.3z"/>
	
		<linearGradient id="SVGID_19_" gradientUnits="userSpaceOnUse" x1="49.277" y1="20.7092" x2="43.1618" y2="19.5743" gradientTransform="matrix(1 0 0 -1 0 46)">
		<stop  offset="0" style="stop-color:#005AA0"/>
		<stop  offset="1" style="stop-color:#005AA0;stop-opacity:0"/>
	</linearGradient>
	<path class="st21" d="M47.6,26.8c-0.6,1.1-2.3,2.2-4.8,2c-0.2,0-0.3-0.2-0.1-0.4c1.1-1.4,0.6-2.9,1.5-4.1c0.4-0.6,1.7-1.4,2.9-0.5
		C48.1,24.6,48.1,26,47.6,26.8z"/>
	<path class="st19" d="M48,25.8c-0.2,1-1.2,2.4-3.2,2.8c-0.1,0-0.2-0.1-0.2-0.2c0.5-1.4-0.3-2.4,0-3.5c0.2-0.5,0.9-1.6,2.1-1.2
		C47.7,23.9,48.1,25,48,25.8z"/>
	
		<linearGradient id="SVGID_20_" gradientUnits="userSpaceOnUse" x1="46.4059" y1="22.3669" x2="46.2963" y2="18.2721" gradientTransform="matrix(1 0 0 -1 0 46)">
		<stop  offset="0" style="stop-color:#FCD475;stop-opacity:0"/>
		<stop  offset="1" style="stop-color:#E7A100"/>
	</linearGradient>
	<path class="st22" d="M47.1,23.8c0.7,0.4,1,1.3,0.9,2c-0.2,1-1.2,2.4-3.2,2.8c-0.1,0-0.1-0.1,0-0.1C46.5,27.3,47.4,24.8,47.1,23.8z
		"/>
	<path class="st23" d="M77.1,10.1c3.7,0,6.8,2.9,7.1,6.6c0.2,2,0.3,6.9-0.2,8.6c-0.9,3.1-3.6,5.5-6.9,5.5c-3.3,0-6-2.4-6.9-5.5
		c-0.5-1.7-0.4-6.6-0.2-8.6C70.3,13.1,73.3,10.2,77.1,10.1z M77.1,26.9c1.4,0,2.6-0.9,3-2.2c0.5-1.6,0.5-7,0-8.3
		c-0.5-1.3-1.6-2.3-3-2.3c-1.4,0-2.6,1-3,2.3c-0.5,1.3-0.5,6.7,0,8.3C74.5,26,75.7,26.8,77.1,26.9z M124.5,30.3h2.7
		c0.3,0,0.6-0.3,0.6-0.6V16.6c0-0.3-0.3-0.6-0.6-0.6h-2.7c-0.3,0-0.6,0.3-0.6,0.6v13.1C123.9,30,124.2,30.3,124.5,30.3z M123.9,10.9
		v2.7c0,0.3,0.3,0.6,0.6,0.6h2.7c0.3,0,0.6-0.3,0.6-0.6v-2.7c0-0.3-0.3-0.6-0.6-0.6h-2.7C124.2,10.3,123.9,10.6,123.9,10.9z
		 M106.4,30.3h2.7c0.3,0,0.6-0.3,0.6-0.6V10.9c0-0.3-0.3-0.6-0.6-0.6h-2.7c-0.3,0-0.6,0.3-0.6,0.6v18.8
		C105.8,30,106.1,30.3,106.4,30.3z M121.2,10.4h-9c-0.3,0-0.6,0.3-0.6,0.6v2.7c0,0.3,0.3,0.6,0.6,0.6h2.6v15.6
		c0,0.3,0.3,0.6,0.6,0.6h2.7c0.3,0,0.6-0.3,0.6-0.6V14.2h2.6c0.3,0,0.6-0.3,0.6-0.6v-2.7C121.8,10.6,121.6,10.4,121.2,10.4z
		 M98.3,23.1l2.1-8.5c0.1-0.3,0.3-0.4,0.5-0.4h2.1c0.4,0,0.6,0.3,0.5,0.7l-3.7,15c-0.1,0.3-0.3,0.4-0.5,0.4h-2.5
		c-0.3,0-0.5-0.2-0.6-0.5L95,22.9l-1.3,6.9c0,0.3-0.3,0.5-0.6,0.5h-2.4c-0.3,0-0.5-0.2-0.5-0.4l-3.7-15c-0.1-0.4,0.2-0.7,0.5-0.7
		h2.1c0.3,0,0.5,0.2,0.5,0.4l2,8.3l1.5-8.2c0-0.3,0.3-0.5,0.6-0.5h2.3c0.3,0,0.5,0.2,0.6,0.5L98.3,23.1z M87.1,40.8
		c0-2,1.1-3.2,2.8-3.2s2.8,1.2,2.8,3.2c0,2-1.1,3.2-2.8,3.2C88.2,44,87.1,42.8,87.1,40.8z M91.2,40.8c0-1.2-0.5-1.9-1.3-1.9
		s-1.3,0.7-1.3,1.9c0,1.2,0.5,2,1.3,2C90.7,42.7,91.2,42,91.2,40.8z M74.9,37.6c-1.6,0-3,1.2-3,3.2c0,2.1,1.3,3.2,3,3.2
		c0.9,0,1.6-0.3,2-0.8v-2.9h-2.3v1.2h1v1c-0.1,0.1-0.4,0.2-0.6,0.2c-1.1,0-1.7-0.7-1.7-1.9c0-1.2,0.7-1.9,1.6-1.9
		c0.5,0,0.8,0.2,1.1,0.5l0.8-0.9C76.4,38,75.8,37.6,74.9,37.6z M82,41.7l1.1,2.2h1.7l-1.4-2.4c0.6-0.3,1.1-0.9,1.1-1.8
		c0-1.5-1.1-1.9-2.4-1.9h-2.3v6.2h1.5v-2.2H82z M82,40.5h-0.7v-1.7H82c0.7,0,1.1,0.2,1.1,0.8C83.1,40.2,82.7,40.5,82,40.5z
		 M95.5,37.7V41c0,2.1,0.9,3,2.5,3c1.6,0,2.5-0.9,2.5-3v-3.3H99v3.4c0,1.2-0.4,1.6-1,1.6c-0.7,0-1-0.4-1-1.6v-3.4H95.5z M103.4,37.7
		h2.2c1.4,0,2.5,0.5,2.5,2c0,1.5-1.1,2.1-2.4,2.1h-0.7v2h-1.5V37.7z M105.6,40.7c0.7,0,1.1-0.3,1.1-0.9c0-0.6-0.4-0.8-1.1-0.8h-0.6
		v1.8H105.6z M139.2,14.1c-1.7,0-3.3,0.5-4.7,1.4l0-0.3h0v-0.5c0-0.3-0.3-0.6-0.6-0.6h-2.7c-0.3,0-0.6,0.3-0.6,0.6v15
		c0,0.3,0.3,0.6,0.6,0.6h2.7c0.3,0,0.6-0.3,0.6-0.6v-7.2c0-3.2,2-4.5,4.4-4.6v11.8c0,0.3,0.3,0.6,0.6,0.6h2.7c0.3,0,0.6-0.3,0.6-0.6
		V17.8C142.7,15.8,141.1,14.2,139.2,14.1z M154.8,14.1h2.7c0.3,0,0.6,0.3,0.6,0.6v0.4v14.7v1c0,3.5-2.8,6.3-6.3,6.3
		c-1.5,0-3.8,0-6.4-1.8c-0.3-0.2-0.3-0.6-0.1-0.8l1.7-2.1c0.2-0.2,0.5-0.3,0.8-0.1c1.6,1.1,2.9,1.2,4.1,1.1c1.3-0.2,2.5-1.1,2.5-2.5
		v-0.4c-0.7,0.3-1.4,0.4-2.2,0.4h-0.9c-2.8,0-5.1-1.9-5.8-4.4c-0.6-2-0.5-6,0-7.8c0.7-2.5,3-4.4,5.8-4.4h0.9c0.8,0,1.5,0.2,2.2,0.4
		l0,0C154.3,14.3,154.5,14.1,154.8,14.1z M152.6,26.8c0.8-0.3,1.4-0.9,1.5-1.8c0-0.1,0-0.1,0-0.2c0,0,0-0.1,0-0.1v-4.6
		c0,0,0,0,0-0.1c0-0.1,0-0.2,0-0.2c-0.1-0.9-0.8-1.5-1.5-1.8c-0.5-0.2-1.9-0.2-2.2,0c-0.8,0.2-1.5,0.9-1.6,1.8
		c-0.2,1.1-0.3,3.8,0,5.1c0.2,0.9,0.8,1.7,1.6,1.9C151,27,152.2,27,152.6,26.8z"/>
</g>
</svg>
